<svg width="270" height="199" viewBox="0 0 270 199" fill="none" xmlns="http://www.w3.org/2000/svg">
<path fill-rule="evenodd" clip-rule="evenodd" d="M268.492 74.8823C268.492 102.302 259.667 128.031 248.818 149.012C248.766 149.131 248.707 149.245 248.642 149.355C236.783 172.18 222.562 189.34 214.79 196.852C213.706 197.896 212.355 198.467 210.961 198.468H187.394C186.124 198.468 184.886 197.994 183.853 197.113C182.821 196.232 182.045 194.988 181.636 193.555C181.226 192.123 181.203 190.573 181.57 189.124C181.936 187.676 182.674 186.4 183.68 185.475C184.415 184.801 185.209 184.225 186.05 183.756C185.076 177.514 182.413 160.207 180.397 145.018C166.86 147.998 143.654 149.467 109.674 149.507C100.896 167.929 87.026 188.234 81.4655 196.113C80.9446 196.852 80.2941 197.446 79.5597 197.853C78.8253 198.26 78.025 198.471 77.215 198.469H52.0725C50.905 198.481 49.7647 198.049 48.8166 197.237C47.8684 196.425 47.1615 195.275 46.798 193.953C46.4151 192.658 46.3877 191.251 46.7199 189.935C47.0521 188.62 47.7266 187.465 48.646 186.637C49.8817 185.518 51.2693 184.659 52.7485 184.098C52.3203 176.404 50.9583 152.044 50.3826 143.022C49.9274 135.881 47.4893 128.404 44.4156 122.276C44.4072 122.259 44.398 122.242 44.3888 122.225C44.3854 122.219 44.382 122.213 44.3787 122.207C44.3757 122.201 44.3728 122.196 44.3699 122.19C44.3643 122.179 44.359 122.168 44.3541 122.157C42.7198 118.84 40.7437 115.78 38.472 113.048C35.4439 109.529 31.5356 106.378 27.3971 103.042C19.8898 96.9918 11.3807 90.1328 6.00165 79.0998C5.19313 77.4835 4.54128 75.7629 4.05864 73.9712C3.48848 73.9657 2.92557 73.8183 2.40603 73.5383C1.88649 73.2584 1.42178 72.8522 1.0417 72.3458C0.661624 71.8393 0.374568 71.2438 0.198943 70.5975C0.0233178 69.9511 -0.0369987 69.2681 0.0218613 68.5924C0.0807214 67.9166 0.257459 67.2629 0.540739 66.6733C0.824019 66.0837 1.20759 65.5711 1.66685 65.1684C2.12611 64.7658 2.65092 64.482 3.20763 64.3352C3.76434 64.1883 4.34066 64.1818 4.89962 64.3159C4.90137 64.3163 4.9031 64.3168 4.90482 64.3174C4.90675 64.318 4.90866 64.3188 4.91055 64.3195C4.91565 64.3215 4.92063 64.3235 4.92562 64.3235C5.41381 63.4829 5.9925 62.7224 6.64684 62.0614C9.31933 59.339 11.9897 52.5982 14.5726 46.0782L14.5726 46.0781L14.5743 46.0737L14.5797 46.0602L14.5797 46.0601C17.1153 39.6612 19.7365 33.0463 22.8271 28.8557C26.4293 23.9711 32.3687 17.7595 38.4481 14.6388C37.588 9.50202 39.4074 4.9519 43.2017 2.90413C44.3593 2.22742 45.6294 1.86828 46.9188 1.85308C48.2082 1.83787 49.484 2.16699 50.6527 2.81625C53.4112 4.37468 55.6211 7.75076 56.5905 11.8716C56.5905 11.8716 74.354 12.1839 82.0672 12.5095C83.8685 12.5854 85.7346 12.6638 87.6447 12.7377H87.6527C99.861 13.2094 114.063 13.4819 127.505 11.6219C133.499 10.7918 140.497 9.11321 147.905 7.33603C168.405 2.41795 193.918 -3.70199 219.099 2.8605C238.996 8.04664 250.681 22.113 256.983 33.0005C264.189 45.4516 268.492 61.1086 268.492 74.8823ZM47.5021 117.419C61.7558 111.156 75.1366 95.8013 82.7384 76.8194C90.3788 57.7408 91.4809 37.0582 85.8932 18.3614C84.5371 18.307 83.1979 18.2514 81.899 18.1964C79.4547 18.0927 76.5591 18.0605 73.5024 18.0264H73.5022C66.9769 17.9537 59.7174 17.8729 54.5472 17.0717C54.4882 17.4398 54.3949 17.799 54.2692 18.1426C52.4662 22.9254 45.2832 23.6999 42.2673 18.4474C41.8693 18.9569 41.382 19.3558 40.84 19.6157C35.323 22.2521 29.6218 28.2646 26.416 32.6124C23.7668 36.2028 21.29 42.4555 18.8949 48.5027L18.8945 48.5037C15.9674 55.8928 13.2032 62.8708 9.75131 66.3871C8.29007 67.8753 7.19176 70.2108 10.1323 76.2415C14.961 86.1462 22.6406 92.3373 30.0663 98.3237L30.0744 98.3302L30.0829 98.337L30.0831 98.3372C34.3999 101.817 38.4769 105.103 41.8089 108.976C43.9567 111.537 45.8655 114.368 47.5021 117.419ZM184.181 136.909C202.711 123.969 224.804 127.95 229.255 128.936C238.673 131.023 244.389 136.5 247.132 141.388C256.475 122.109 263.716 99.1635 263.716 74.8823C263.716 53.7856 251.326 17.0856 218.076 8.4165C193.875 2.10772 168.909 8.09749 148.847 12.9105L148.845 12.911C141.337 14.7153 134.245 16.4173 128.054 17.2733C123.497 17.9043 118.871 18.2899 114.27 18.5144C115.886 22.1004 117.826 26.1523 119.852 30.3825C128.6 48.65 139.486 71.3873 140.3 88.2677C141.023 103.251 139.073 116.576 134.661 126.804C131.493 134.153 127.155 139.803 121.715 143.739C149.042 143.399 168.107 141.967 179.668 139.393C178.645 131.248 177.924 124.306 177.924 120.937C177.924 120.183 178.175 119.459 178.623 118.926C179.071 118.392 179.678 118.092 180.311 118.092C180.945 118.092 181.552 118.392 182 118.926C182.447 119.459 182.699 120.183 182.699 120.937C182.699 123.838 183.3 129.773 184.181 136.909ZM22.9183 57.5388C16.8025 50.2411 22.3919 37.8144 32.0017 42.2392C47.1906 49.2253 48.2537 68.7877 36.7085 70.0029C31.2574 70.5779 28.1065 65.5209 25.4605 61.2743L25.4604 61.2742L25.4604 61.2741C24.5791 59.8598 23.7539 58.5353 22.9183 57.5388ZM26.0475 53.6763C26.5214 54.0586 27.0785 54.2627 27.6484 54.2627C28.4125 54.2625 29.1453 53.8959 29.6857 53.2434C30.226 52.5909 30.5296 51.706 30.5298 50.7833C30.5298 50.0952 30.3608 49.4225 30.0442 48.8503C29.7275 48.2781 29.2775 47.8321 28.751 47.5688C28.2245 47.3055 27.6452 47.2365 27.0862 47.3708C26.5273 47.5051 26.0139 47.8364 25.6109 48.323C25.2079 48.8096 24.9335 49.4296 24.8223 50.1045C24.7112 50.7794 24.7682 51.479 24.9863 52.1148C25.2044 52.7506 25.5737 53.294 26.0475 53.6763ZM135.331 154.951C135.301 154.811 135.233 154.687 135.136 154.599C135.04 154.511 134.921 154.464 134.799 154.465C132.193 154.498 118.399 154.668 112.55 154.696C112.46 154.695 112.372 154.722 112.293 154.774C112.214 154.825 112.148 154.9 112.101 154.99C108.342 162.044 101.747 173.019 97.3921 180.164C97.3204 180.282 97.285 180.425 97.2918 180.57C97.2986 180.715 97.3472 180.852 97.4295 180.96L103.515 189.012L103.45 189.127C103.445 189.138 103.439 189.149 103.434 189.159C103.429 189.168 103.425 189.176 103.42 189.184C103.406 189.21 103.392 189.236 103.38 189.261C102.905 190.179 102.646 191.23 102.63 192.306C102.613 193.382 102.84 194.443 103.286 195.381C103.732 196.319 104.382 197.099 105.169 197.642C105.955 198.185 106.85 198.471 107.762 198.47H133.641C134.325 198.469 135.003 198.307 135.633 197.993C136.264 197.679 136.835 197.219 137.313 196.641C137.791 196.062 138.166 195.376 138.416 194.624C138.666 193.872 138.787 193.068 138.77 192.26C138.683 188.097 138.456 181.562 137.892 174.47C137.426 167.901 136.57 161.379 135.331 154.951ZM262.738 131.239C262.824 131.316 262.888 131.422 262.923 131.544C268.499 150.618 269.733 179.33 269.999 192.285C270.014 193.09 269.897 193.891 269.654 194.64C269.411 195.39 269.048 196.072 268.584 196.648C268.121 197.225 267.567 197.683 266.956 197.995C266.345 198.308 265.688 198.469 265.025 198.47H238.158C237.331 198.452 236.521 198.182 235.804 197.684C235.086 197.185 234.483 196.476 234.051 195.62C233.565 194.72 233.275 193.686 233.207 192.614C233.139 191.541 233.295 190.466 233.662 189.486C234.003 188.6 234.439 187.773 234.959 187.026L233.19 184.76C233.099 184.645 233.047 184.493 233.045 184.334C233.043 184.175 233.09 184.02 233.177 183.901C243.413 169.754 252.27 154.22 259.574 137.608C260.447 135.625 261.238 133.589 261.942 131.509C261.983 131.39 262.053 131.288 262.142 131.218C262.231 131.148 262.336 131.113 262.443 131.116C262.549 131.12 262.652 131.163 262.738 131.239Z" fill="black"/>
</svg>
