<svg width="82" height="52" viewBox="0 0 82 52" fill="none" xmlns="http://www.w3.org/2000/svg">
<path fill-rule="evenodd" clip-rule="evenodd" d="M2 1H80C80.5523 1 81 1.44771 81 2V50C81 50.5523 80.5523 51 80 51H2C1.44771 51 1 50.5523 1 50V2C1 1.44772 1.44772 1 2 1ZM0 2C0 0.895432 0.89543 0 2 0H80C81.1046 0 82 0.895431 82 2V50C82 51.1046 81.1046 52 80 52H2C0.895429 52 0 51.1046 0 50V2ZM11.578 16.244H8.38412V21.5454H6.59222V8.0273H11.578C12.5992 8.0273 13.4627 8.2037 14.1683 8.55651C14.8739 8.90931 15.4093 9.39829 15.7745 10.0234C16.1397 10.6424 16.3223 11.3511 16.3223 12.1496C16.3223 13.0161 16.1397 13.7558 15.7745 14.3686C15.4093 14.9813 14.8739 15.4486 14.1683 15.7705C13.4627 16.0862 12.5992 16.244 11.578 16.244ZM8.38412 9.49423V14.7864H11.578C12.2774 14.7864 12.8437 14.6749 13.277 14.4521C13.7103 14.2293 14.0259 13.9198 14.224 13.5237C14.4283 13.1275 14.5304 12.6757 14.5304 12.1681C14.5304 11.7039 14.4283 11.2676 14.224 10.859C14.0259 10.4505 13.7103 10.1225 13.277 9.87489C12.8437 9.62112 12.2774 9.49423 11.578 9.49423H8.38412ZM22.3665 21.7311C21.667 21.7311 21.0326 21.6135 20.4631 21.3783C19.8999 21.1369 19.414 20.7996 19.0055 20.3663C18.6032 19.933 18.2937 19.4193 18.077 18.8251C17.8604 18.2309 17.7521 17.581 17.7521 16.8753V16.4854C17.7521 15.6684 17.8728 14.9411 18.1142 14.3036C18.3556 13.6598 18.6836 13.1152 19.0983 12.6695C19.513 12.2239 19.9834 11.8865 20.5096 11.6575C21.0357 11.4285 21.5804 11.314 22.1436 11.314C22.8616 11.314 23.4806 11.4378 24.0005 11.6854C24.5266 11.9329 24.9568 12.2796 25.291 12.7252C25.6253 13.1647 25.8729 13.6846 26.0338 14.285C26.1947 14.8792 26.2752 15.5291 26.2752 16.2347V17.0053H19.4806C19.4914 17.4337 19.5559 17.8392 19.674 18.2216C19.8101 18.6363 20.0051 19.0015 20.2589 19.3172C20.5189 19.6328 20.8314 19.8804 21.1966 20.0599C21.568 20.2394 21.9889 20.3292 22.4593 20.3292C23.0659 20.3292 23.5796 20.2054 24.0005 19.9578C24.4214 19.7102 24.7897 19.379 25.1054 18.9643L26.1452 19.7907C25.9286 20.1187 25.6531 20.4313 25.3189 20.7284C24.9847 21.0255 24.573 21.2669 24.0841 21.4526C23.6013 21.6383 23.0287 21.7311 22.3665 21.7311ZM19.674 14.8792C19.611 15.1039 19.5634 15.3453 19.5309 15.6034H24.5576V15.4734C24.5328 15.0277 24.44 14.5945 24.279 14.1736C24.1243 13.7527 23.8767 13.4061 23.5363 13.1337C23.1959 12.8614 22.7316 12.7252 22.1436 12.7252C21.7537 12.7252 21.3947 12.8088 21.0666 12.9759C20.7386 13.1368 20.457 13.3782 20.2218 13.7001C19.9865 14.0219 19.804 14.415 19.674 14.8792ZM32.4865 11.4997V12.8181H30.611V19.0572C30.611 19.3976 30.6636 19.6545 30.7689 19.8278C30.8741 20.0011 31.0102 20.1156 31.1774 20.1713C31.3445 20.227 31.524 20.2549 31.7159 20.2549C31.8582 20.2549 32.0068 20.2425 32.1615 20.2177C32.3224 20.1868 32.4431 20.162 32.5236 20.1435L32.5329 21.5454C32.3967 21.5887 32.2172 21.629 31.9944 21.6661C31.7778 21.7094 31.5147 21.7311 31.2052 21.7311C30.7843 21.7311 30.3975 21.6475 30.0447 21.4804C29.6919 21.3133 29.4102 21.0348 29.1998 20.6448C28.9955 20.2487 28.8934 19.7164 28.8934 19.0479V12.8181H27.0551V11.4997H28.8934V9.05787H30.611V11.4997H32.4865ZM41.9659 18.1287C41.9659 17.8131 41.9163 17.5345 41.8173 17.2931C41.7245 17.0456 41.5573 16.8227 41.316 16.6247C41.0807 16.4266 40.7527 16.2378 40.3318 16.0583C39.9171 15.8788 39.391 15.6962 38.7535 15.5105C38.085 15.3125 37.4815 15.0927 36.943 14.8513C36.4045 14.6038 35.9434 14.3221 35.5596 14.0065C35.1759 13.6908 34.8819 13.3287 34.6776 12.9202C34.4733 12.5117 34.3712 12.0444 34.3712 11.5182C34.3712 10.9921 34.4795 10.5062 34.6962 10.0606C34.9128 9.61493 35.2223 9.22808 35.6246 8.90003C36.0331 8.56579 36.519 8.30583 37.0823 8.12014C37.6455 7.93445 38.2738 7.84161 38.967 7.84161C39.9821 7.84161 40.8424 8.03658 41.5481 8.42653C42.2599 8.81028 42.8015 9.31473 43.1728 9.93989C43.5442 10.5588 43.7299 11.2211 43.7299 11.9268H41.9473C41.9473 11.4192 41.839 10.9705 41.6223 10.5805C41.4057 10.1844 41.0777 9.87489 40.6382 9.65207C40.1987 9.42305 39.6417 9.30855 38.967 9.30855C38.3295 9.30855 37.8033 9.40448 37.3886 9.59636C36.9739 9.78824 36.6645 10.0482 36.4602 10.3763C36.2621 10.7043 36.1631 11.0788 36.1631 11.4997C36.1631 11.7844 36.2219 12.0444 36.3395 12.2796C36.4633 12.5086 36.6521 12.7221 36.9059 12.9202C37.1658 13.1183 37.4939 13.3008 37.89 13.468C38.2923 13.6351 38.772 13.796 39.3291 13.9508C40.0966 14.1674 40.7589 14.4088 41.316 14.6749C41.873 14.9411 42.3311 15.2413 42.69 15.5755C43.0552 15.9036 43.3245 16.278 43.4978 16.6989C43.6773 17.1136 43.767 17.5841 43.767 18.1102C43.767 18.6611 43.6556 19.1593 43.4328 19.605C43.21 20.0506 42.8912 20.4313 42.4765 20.747C42.0618 21.0626 41.5635 21.3071 40.9817 21.4804C40.4061 21.6475 39.7624 21.7311 39.0506 21.7311C38.4254 21.7311 37.8095 21.6444 37.203 21.4711C36.6026 21.2978 36.0548 21.0379 35.5596 20.6912C35.0706 20.3446 34.6776 19.9175 34.3805 19.41C34.0896 18.8963 33.9441 18.3021 33.9441 17.6274H35.7267C35.7267 18.0916 35.8165 18.4908 35.996 18.8251C36.1755 19.1531 36.42 19.4255 36.7295 19.6421C37.0451 19.8587 37.401 20.0197 37.7972 20.1249C38.1995 20.2239 38.6173 20.2734 39.0506 20.2734C39.6757 20.2734 40.2049 20.1868 40.6382 20.0135C41.0715 19.8402 41.3995 19.5926 41.6223 19.2707C41.8514 18.9489 41.9659 18.5682 41.9659 18.1287ZM49.9969 11.4997V12.8181H48.1214V19.0572C48.1214 19.3976 48.174 19.6545 48.2793 19.8278C48.3845 20.0011 48.5207 20.1156 48.6878 20.1713C48.8549 20.227 49.0344 20.2549 49.2263 20.2549C49.3686 20.2549 49.5172 20.2425 49.6719 20.2177C49.8329 20.1868 49.9536 20.162 50.034 20.1435L50.0433 21.5454C49.9071 21.5887 49.7276 21.629 49.5048 21.6661C49.2882 21.7094 49.0251 21.7311 48.7156 21.7311C48.2947 21.7311 47.9079 21.6475 47.5551 21.4804C47.2023 21.3133 46.9207 21.0348 46.7102 20.6448C46.5059 20.2487 46.4038 19.7164 46.4038 19.0479V12.8181H44.5655V11.4997H46.4038V9.05787H48.1214V11.4997H49.9969ZM51.371 16.634V16.4204C51.371 15.6962 51.4762 15.0247 51.6867 14.4057C51.8971 13.7805 52.2004 13.2389 52.5965 12.7809C52.9927 12.3167 53.4724 11.9577 54.0356 11.7039C54.5989 11.444 55.2302 11.314 55.9296 11.314C56.6352 11.314 57.2697 11.444 57.8329 11.7039C58.4024 11.9577 58.8852 12.3167 59.2813 12.7809C59.6836 13.2389 59.99 13.7805 60.2005 14.4057C60.4109 15.0247 60.5161 15.6962 60.5161 16.4204V16.634C60.5161 17.3581 60.4109 18.0297 60.2005 18.6487C59.99 19.2676 59.6836 19.8092 59.2813 20.2734C58.8852 20.7315 58.4055 21.0905 57.8422 21.3504C57.2852 21.6042 56.6538 21.7311 55.9482 21.7311C55.2426 21.7311 54.6082 21.6042 54.0449 21.3504C53.4816 21.0905 52.9989 20.7315 52.5965 20.2734C52.2004 19.8092 51.8971 19.2676 51.6867 18.6487C51.4762 18.0297 51.371 17.3581 51.371 16.634ZM53.0886 16.4204V16.634C53.0886 17.1353 53.1474 17.6088 53.265 18.0545C53.3826 18.4939 53.559 18.8839 53.7942 19.2243C54.0356 19.5647 54.3358 19.834 54.6948 20.032C55.0538 20.2239 55.4716 20.3199 55.9482 20.3199C56.4186 20.3199 56.8302 20.2239 57.183 20.032C57.542 19.834 57.8391 19.5647 58.0743 19.2243C58.3095 18.8839 58.4859 18.4939 58.6035 18.0545C58.7273 17.6088 58.7892 17.1353 58.7892 16.634V16.4204C58.7892 15.9252 58.7273 15.4579 58.6035 15.0185C58.4859 14.5728 58.3064 14.1798 58.065 13.8393C57.8298 13.4927 57.5327 13.2204 57.1737 13.0223C56.8209 12.8242 56.4062 12.7252 55.9296 12.7252C55.4592 12.7252 55.0445 12.8242 54.6855 13.0223C54.3327 13.2204 54.0356 13.4927 53.7942 13.8393C53.559 14.1798 53.3826 14.5728 53.265 15.0185C53.1474 15.4579 53.0886 15.9252 53.0886 16.4204ZM64.3877 21.5454V14.4035C64.5083 14.1225 64.6662 13.8788 64.8612 13.6722C65.0717 13.4494 65.3286 13.2761 65.6319 13.1523C65.9351 13.0285 66.2849 12.9666 66.681 12.9666C66.8419 12.9666 66.9843 12.9728 67.1081 12.9852C67.2381 12.9914 67.3742 13.0099 67.5166 13.0409L67.5259 11.444C67.464 11.413 67.3526 11.3852 67.1916 11.3604C67.0307 11.3295 66.8883 11.314 66.7645 11.314C66.2199 11.314 65.7495 11.4316 65.3533 11.6668C64.9634 11.8958 64.6415 12.2177 64.3877 12.6324L64.3752 12.6526L64.3413 11.4997H62.6701V21.5454H64.3877ZM68.1758 11.4997L71.7615 21.4371L71.3882 22.4553C71.252 22.87 71.088 23.1949 70.8961 23.4301C70.7104 23.6715 70.4814 23.8418 70.2091 23.9408C69.9367 24.046 69.6056 24.0986 69.2156 24.0986C69.1723 24.0986 69.0949 24.0924 68.9835 24.0801C68.8783 24.0739 68.8009 24.0677 68.7514 24.0615L68.7607 25.4542C68.8474 25.4789 68.9959 25.5099 69.2064 25.547C69.4168 25.5841 69.5901 25.6027 69.7263 25.6027C70.1843 25.6027 70.5773 25.5191 70.9054 25.352C71.2396 25.1911 71.5244 24.9806 71.7596 24.7207C71.9948 24.4607 72.1867 24.1853 72.3352 23.8944C72.4899 23.6096 72.6137 23.3435 72.7066 23.0959L76.736 11.4997H74.8977L72.5655 19.0155L70.0512 11.4997H68.1758ZM16.2573 39.634V39.4204C16.2573 38.6962 16.3625 38.0247 16.573 37.4057C16.6452 37.191 16.7285 36.9862 16.8226 36.7912C16.6412 36.4507 16.4448 36.1075 16.2321 35.7585C16.0934 35.7096 16.0323 35.6881 15.9909 35.6468C15.9582 35.6142 15.9377 35.5694 15.9011 35.4893C15.8181 35.3075 15.5702 35.22 15.3223 35.1325C15.2393 34.9508 15.0744 35.045 15.0744 35.045C14.1669 35.3347 11.1123 35.4766 10.2855 35.0323C11.11 34.5609 12.5134 34.4462 13.5869 34.5201C13.5114 34.4827 13.4346 34.4449 13.3571 34.4067L13.3557 34.4061L13.2874 34.3724C13.5387 34.4114 13.7692 34.4624 13.9997 34.5133C14.2889 34.5772 14.578 34.6411 14.9084 34.6815C14.6816 34.5753 14.4621 34.4717 14.2491 34.3712L14.2487 34.371L14.0782 34.2905C13.2624 33.7957 12.391 33.4881 11.5196 33.1806L11.5195 33.1806L11.5195 33.1806C12.2953 33.4544 13.1219 33.8394 14.0782 34.2905C14.1448 34.3309 14.211 34.3725 14.2768 34.4155C14.1403 34.3558 14.0065 34.3011 13.8752 34.2498C13.0767 33.8826 12.4636 33.6663 11.8505 33.4499L11.8505 33.4499L11.8504 33.4499C12.2638 33.672 12.6976 33.8251 13.1625 33.9891L13.1629 33.9893C13.3923 34.0702 13.6293 34.1539 13.8752 34.2498C14.0453 34.328 14.2238 34.4131 14.4125 34.5065C14.3675 34.4755 14.3222 34.4452 14.2768 34.4155C14.4023 34.4704 14.5302 34.5295 14.6605 34.594L14.6007 34.5731C13.8078 34.2947 13.159 34.0786 12.4094 33.9288C11.7094 33.5586 11.1014 33.1758 10.9406 32.8238C11.8493 32.992 13.5847 33.6044 14.6593 34.1362C14.8663 34.3617 15.0318 34.4963 15.1559 34.5973C15.28 34.6983 15.3627 34.7656 15.4042 34.8565C15.4457 34.9474 15.5284 35.0147 15.6112 35.082C15.6939 35.1493 15.7766 35.2166 15.8181 35.3075C15.8591 35.1695 15.9827 35.0988 16.1477 35.0045C16.3126 34.9102 16.5187 34.7923 16.7245 34.56C17.0543 34.3714 17.3841 34.1829 17.715 34.4521L17.812 34.7406L17.8124 34.7418C17.8732 34.923 17.9333 35.102 17.9931 35.2786C18.2723 35.0487 18.5819 34.8571 18.9219 34.7039C19.4852 34.444 20.1165 34.314 20.816 34.314C21.5216 34.314 22.156 34.444 22.7193 34.7039C23.2887 34.9577 23.7715 35.3167 24.1676 35.7809C24.57 36.2389 24.8763 36.7805 25.0868 37.4057C25.2972 38.0247 25.4025 38.6962 25.4025 39.4204V39.634C25.4025 40.3581 25.2972 41.0297 25.0868 41.6487C24.8763 42.2676 24.57 42.8092 24.1676 43.2734C23.7715 43.7315 23.2918 44.0905 22.7285 44.3504C22.1715 44.6042 21.5401 44.7311 20.8345 44.7311C20.1289 44.7311 19.4945 44.6042 18.9312 44.3504C18.368 44.0905 17.8852 43.7315 17.4828 43.2734C17.0867 42.8092 16.7834 42.2676 16.573 41.6487C16.3625 41.0297 16.2573 40.3581 16.2573 39.634ZM12.5135 33.9834C12.77 34.0632 13.022 34.1269 13.2875 34.1939L13.2876 34.194C13.6774 34.2924 14.0961 34.3982 14.6007 34.5731C14.6986 34.6075 14.7987 34.6428 14.9015 34.6791C14.3169 34.4735 13.9367 34.4345 13.4777 34.3875L13.4751 34.3872C13.4102 34.3805 13.3437 34.3737 13.2749 34.3663C13.0222 34.2417 12.7632 34.1135 12.5135 33.9834ZM12.5135 33.9834C12.4786 33.9653 12.4439 33.947 12.4094 33.9288C12.3615 33.9192 12.3131 33.9099 12.2643 33.9009C12.3482 33.9305 12.4311 33.9578 12.5135 33.9834ZM13.2749 34.3663L13.2874 34.3724C13.2234 34.3625 13.1581 34.3533 13.0911 34.3451C13.1545 34.3529 13.2156 34.3598 13.2749 34.3663ZM14.9936 35.7789L14.8287 35.8732C13.9212 36.1629 12.8499 37.0046 12.2733 37.5636C12.7691 37.7385 13.7586 37.1728 14.5 36.5196C14.0065 37.2603 13.431 38.2771 13.1023 38.9235C13.8449 38.7281 15.1608 36.6003 15.2415 35.8664L15.5713 35.6778L15.9011 35.4893C15.7362 35.5836 15.5713 35.6778 15.3234 35.5904L14.9936 35.7789ZM14.9936 35.7789C15.1585 35.6846 15.2415 35.8664 15.0766 35.9607C14.9284 36.0455 14.7969 36.167 14.6522 36.3007C14.4749 36.4645 14.2777 36.6468 14.0053 36.8025C14.1536 36.7177 14.2851 36.5962 14.4298 36.4625C14.6061 36.2995 14.8022 36.1184 15.0723 35.9632C14.8262 36.1046 14.5599 36.3138 14.2936 36.523C14.0274 36.7322 13.7612 36.9414 13.5151 37.0828C13.7607 36.9417 13.9859 36.7559 14.2111 36.5702L14.2112 36.5702L14.2112 36.5701C14.4369 36.384 14.6626 36.1979 14.9088 36.0567C14.2502 36.4332 13.5917 36.8101 13.0159 37.3682C13.4257 36.9057 14.0811 36.5299 14.7377 36.1545L12.768 37.2807C13.0794 37.1026 13.4091 36.863 13.7572 36.6101C14.1463 36.3273 14.5584 36.0278 14.9936 35.7789ZM17.9749 39.634V39.4918C18.0034 39.58 18.0312 39.6686 18.0583 39.7576L18.7179 39.3804C18.9647 39.0101 19.1296 38.9158 19.5424 38.909C19.1824 38.3403 18.8798 37.6854 18.5976 36.9654C18.6244 36.9226 18.652 36.8806 18.6805 36.8393C18.9219 36.4927 19.219 36.2204 19.5718 36.0223C19.9308 35.8242 20.3455 35.7252 20.816 35.7252C21.2926 35.7252 21.7073 35.8242 22.0601 36.0223C22.4191 36.2204 22.7162 36.4927 22.9514 36.8393C23.1928 37.1798 23.3723 37.5728 23.4899 38.0185C23.6137 38.4579 23.6756 38.9252 23.6756 39.4204V39.634C23.6756 40.1353 23.6137 40.6088 23.4899 41.0545C23.3723 41.4939 23.1959 41.8839 22.9607 42.2243C22.7255 42.5647 22.4283 42.834 22.0694 43.0321C21.884 43.1329 21.6824 43.2072 21.4646 43.255C20.8197 42.038 20.388 40.699 19.9564 39.3601L19.9564 39.36C19.5424 38.909 19.2126 39.0976 18.8828 39.2861C18.7401 39.4244 18.5974 39.5347 18.4734 39.6305C18.0962 39.9219 17.8923 40.0794 18.3904 40.4847C18.935 41.3781 19.3726 42.2338 19.7268 43.1032C19.6772 43.0812 19.6286 43.0574 19.5811 43.0321C19.2221 42.834 18.9219 42.5647 18.6805 42.2243C18.4453 41.8839 18.2689 41.4939 18.1513 41.0545C18.0337 40.6088 17.9749 40.1353 17.9749 39.634ZM18.2221 39.2054C18.1745 39.0147 18.1091 38.8177 18.0302 38.6149C18.024 38.6589 18.0183 38.7032 18.0131 38.7477L18.2221 39.2054ZM16.9817 36.4893L16.992 36.4714C16.8734 36.2354 16.7561 35.9953 16.6449 35.7518L16.9817 36.4893ZM19.4357 41.7566C19.704 42.278 19.9603 42.7763 20.1503 43.2448C20.1184 43.2373 20.0869 43.2292 20.0557 43.2206L18.8032 40.4779C19.0034 40.9164 19.2233 41.3437 19.4357 41.7565L19.4357 41.7566ZM29.2741 44.5454V37.3763C29.3829 37.1598 29.5098 36.9591 29.6547 36.7743C29.9085 36.4587 30.2087 36.2111 30.5553 36.0316C30.9081 35.8521 31.2981 35.7623 31.7251 35.7623C32.1584 35.7623 32.5236 35.8366 32.8207 35.9852C33.1178 36.1275 33.3437 36.3596 33.4985 36.6815C33.6532 36.9972 33.7306 37.4181 33.7306 37.9442V44.5454H35.4575V37.9628C35.4575 37.3005 35.3832 36.7403 35.2347 36.2823C35.0861 35.8181 34.8695 35.4405 34.5847 35.1496C34.3062 34.8587 33.9689 34.6482 33.5727 34.5182C33.1766 34.3821 32.731 34.314 32.2358 34.314C31.6292 34.314 31.0752 34.4347 30.5739 34.6761C30.0787 34.9113 29.6516 35.2455 29.2926 35.6788C29.2831 35.6903 29.2736 35.7019 29.2642 35.7135C29.2545 35.7254 29.2449 35.7374 29.2353 35.7495L29.1812 34.4997H27.5564V44.5454H29.2741ZM39.9326 30.2845V44.5454H38.2057V30.2845H39.9326ZM44.5562 34.4997V44.5454H42.8293V34.4997H44.5562ZM42.6993 31.835C42.6993 31.5565 42.7829 31.3213 42.95 31.1294C43.1233 30.9375 43.3771 30.8416 43.7113 30.8416C44.0394 30.8416 44.2901 30.9375 44.4634 31.1294C44.6429 31.3213 44.7326 31.5565 44.7326 31.835C44.7326 32.1012 44.6429 32.3302 44.4634 32.5221C44.2901 32.7078 44.0394 32.8006 43.7113 32.8006C43.3771 32.8006 43.1233 32.7078 42.95 32.5221C42.7829 32.3302 42.6993 32.1012 42.6993 31.835ZM49.0313 44.5454V37.3763C49.1402 37.1598 49.2671 36.9591 49.412 36.7743C49.6657 36.4587 49.9659 36.2111 50.3126 36.0316C50.6654 35.8521 51.0553 35.7623 51.4824 35.7623C51.9157 35.7623 52.2809 35.8366 52.578 35.9852C52.8751 36.1275 53.101 36.3596 53.2557 36.6815C53.4105 36.9972 53.4878 37.4181 53.4878 37.9442V44.5454H55.2147V37.9628C55.2147 37.3005 55.1405 36.7403 54.9919 36.2823C54.8434 35.8181 54.6267 35.4405 54.342 35.1496C54.0635 34.8587 53.7261 34.6482 53.33 34.5182C52.9339 34.3821 52.4882 34.314 51.993 34.314C51.3865 34.314 50.8325 34.4347 50.3311 34.6761C49.836 34.9113 49.4089 35.2455 49.0499 35.6788C49.0305 35.7021 49.0114 35.7257 48.9926 35.7495L48.9385 34.4997H47.3137V44.5454H49.0313ZM61.9924 44.7311C61.2929 44.7311 60.6585 44.6135 60.0891 44.3783C59.5258 44.1369 59.0399 43.7996 58.6314 43.3663C58.2291 42.933 57.9196 42.4193 57.703 41.8251C57.4863 41.2309 57.378 40.581 57.378 39.8753V39.4854C57.378 38.6684 57.4987 37.9411 57.7401 37.3036C57.9815 36.6598 58.3095 36.1152 58.7242 35.6695C59.1389 35.2239 59.6094 34.8865 60.1355 34.6575C60.6616 34.4285 61.2063 34.314 61.7695 34.314C62.4875 34.314 63.1065 34.4378 63.6264 34.6854C64.1525 34.9329 64.5827 35.2796 64.9169 35.7252C65.2512 36.1647 65.4988 36.6846 65.6597 37.285C65.8206 37.8792 65.9011 38.5291 65.9011 39.2347V40.0053H59.1065C59.1173 40.4337 59.1818 40.8392 59.2999 41.2216C59.436 41.6363 59.631 42.0015 59.8848 42.3172C60.1448 42.6328 60.4573 42.8804 60.8225 43.0599C61.1939 43.2394 61.6148 43.3292 62.0852 43.3292C62.6918 43.3292 63.2055 43.2054 63.6264 42.9578C64.0473 42.7102 64.4156 42.379 64.7313 41.9643L65.7711 42.7907C65.5545 43.1187 65.279 43.4313 64.9448 43.7284C64.6106 44.0255 64.199 44.2669 63.71 44.4526C63.2272 44.6383 62.6546 44.7311 61.9924 44.7311ZM59.2999 37.8792C59.237 38.1039 59.1893 38.3453 59.1568 38.6034H64.1835V38.4734C64.1587 38.0277 64.0659 37.5945 63.9049 37.1736C63.7502 36.7527 63.5026 36.4061 63.1622 36.1337C62.8218 35.8614 62.3575 35.7252 61.7695 35.7252C61.3796 35.7252 61.0206 35.8088 60.6925 35.9759C60.3645 36.1368 60.0829 36.3782 59.8477 36.7001C59.6124 37.0219 59.4299 37.415 59.2999 37.8792ZM15.9808 34.2976C15.8694 33.75 15.4638 32.963 15.0582 32.1761L15.0582 32.176C14.8554 31.7826 14.6526 31.3892 14.4866 31.0256L15.9808 34.2976ZM17.3841 34.1829C16.6798 33.0706 16.1955 31.6283 15.6537 30.0145L15.5567 29.726C15.2258 29.4568 14.896 29.6453 14.5662 29.8339C14.4235 29.9722 14.2808 30.0825 14.1568 30.1783C13.7796 30.4696 13.5757 30.6272 14.0738 31.0324C14.8197 32.2106 15.4838 33.6647 15.9 35.0314L16.5596 34.6543C16.8064 34.284 16.9713 34.1897 17.3841 34.1829ZM13.8225 29.5714C13.7111 29.0238 13.3055 28.2369 12.8999 27.45C12.6971 27.0565 12.4943 26.6631 12.3283 26.2995L13.8225 29.5714ZM15.2258 29.4568C14.5215 28.3445 14.0372 26.9021 13.4954 25.2883L13.3984 24.9999C13.0675 24.7306 12.7377 24.9192 12.4079 25.1078C12.239 25.2715 12.0629 25.3803 11.9171 25.4705C11.5649 25.6881 11.3888 25.797 11.9155 26.3063C12.6614 27.4844 13.3255 28.9386 13.7417 30.3053C13.9066 30.211 14.2364 30.0225 14.3183 29.7464C14.6481 29.5578 14.813 29.4636 15.2258 29.4568ZM14.5786 34.8701C14.5786 34.8701 14.4137 34.9643 14.3307 34.7826C13.9013 34.7896 13.4918 34.7854 13.0987 34.7813H13.0987H13.0986C12.3578 34.7736 11.6752 34.7665 11.0281 34.8369C11.5357 34.9309 12.0688 34.9387 12.6132 34.9085C12.1642 34.9509 11.7501 35.0033 11.3591 35.1062C11.8819 35.0976 12.4709 35.0512 13.0841 34.9909C12.6654 35.068 12.2601 35.1746 11.8549 35.2812C12.2455 35.2386 12.5975 35.1825 12.9313 35.1293L12.9316 35.1292C13.4442 35.0475 13.9137 34.9726 14.4137 34.9643L14.5786 34.8701ZM13.0841 34.9909C13.4327 34.9267 13.7907 34.883 14.1658 34.8769L14.1647 34.877C13.8018 34.9165 13.4389 34.956 13.0841 34.9909ZM12.6132 34.9085C12.7623 34.8944 12.9153 34.8815 13.0725 34.8681L13.0729 34.8681L13.0732 34.8681C13.3415 34.8453 13.6224 34.8216 13.9178 34.7894C13.4806 34.837 13.0434 34.8846 12.6132 34.9085ZM14.9947 36.2368C14.8838 36.3775 14.7775 36.5156 14.6758 36.6509C14.7233 36.5473 14.7742 36.4405 14.8298 36.3311C14.762 36.4644 14.6872 36.6018 14.6083 36.7415C14.4283 36.9842 14.2636 37.2181 14.1143 37.4432C14.2584 37.2281 14.4068 37.0235 14.5504 36.8432C14.4549 37.0095 14.3546 37.1787 14.2544 37.3478C14.0488 37.6946 13.8432 38.0413 13.6789 38.3645C13.8432 38.0413 14.0283 37.7636 14.2134 37.4858C14.3137 37.3354 14.4139 37.185 14.5108 37.0274L14.4717 37.1195C14.3416 37.4267 14.2292 37.6919 14.0906 37.8999C14.3023 37.5823 14.5742 37.0615 14.8547 36.5119C14.8133 36.6178 14.7809 36.7269 14.7485 36.836C14.7381 36.8712 14.7276 36.9064 14.7169 36.9415C14.7014 36.9744 14.6861 37.0064 14.6713 37.0375C14.5984 37.1904 14.5362 37.3209 14.5023 37.4353C14.6047 37.2816 14.6644 37.1128 14.7169 36.9415C14.8095 36.7449 14.9126 36.5137 14.9947 36.2368ZM14.6373 36.7363C14.6747 36.6912 14.7116 36.6481 14.748 36.6071C14.6726 36.7553 14.5929 36.8939 14.5108 37.0274C14.5506 36.9338 14.5924 36.8366 14.6373 36.7363ZM14.6373 36.7363C14.6499 36.7081 14.6627 36.6796 14.6758 36.6509C14.6531 36.6813 14.6305 36.7115 14.6083 36.7415C14.5989 36.7581 14.5895 36.7747 14.58 36.7913C14.5702 36.8086 14.5603 36.8259 14.5504 36.8432C14.5796 36.8065 14.6085 36.7708 14.6373 36.7363ZM14.8547 36.5119C14.8919 36.4168 14.9364 36.3243 14.9947 36.2368L14.9947 36.2368L14.9939 36.2384C14.9474 36.3298 14.901 36.4212 14.8547 36.5119Z" fill="white"/>
</svg>
